<svg id="Layer_1" data-name="Layer 1" xmlns="http://www.w3.org/2000/svg" xmlns:xlink="http://www.w3.org/1999/xlink" viewBox="0 0 1366 543"><defs><style>.cls-1,.cls-4,.cls-5{font-size:700px;font-family:AugustStoriesDEMO-Script, August Stories DEMO;}.cls-2{fill:url(#linear-gradient);}.cls-3{fill:url(#linear-gradient-5);}.cls-4{fill:#ed1e79;}.cls-5{fill:#824591;}</style><linearGradient id="linear-gradient" x1="277.97" y1="406.51" x2="699.75" y2="406.51" gradientUnits="userSpaceOnUse"><stop offset="0.4" stop-color="#ed1e79"/><stop offset="1" stop-color="#824591"/></linearGradient><linearGradient id="linear-gradient-5" x1="963.49" y1="241.27" x2="1335.86" y2="241.27" gradientUnits="userSpaceOnUse"><stop offset="0" stop-color="#824591"/><stop offset="1" stop-color="#2e2d91"/></linearGradient></defs><text class="cls-1" transform="translate(251.49 440.11)">ugar</text><path class="cls-2" d="M337.59,343.51,327.09,354a74.93,74.93,0,0,1-11.2,9.8c-7,6.3-14.7,10.5-23.8,10.5-17.5,0-15.4-21-11.2-37.1a113.64,113.64,0,0,1,10.5-29.4,3.57,3.57,0,0,1,3.5-2.8c2.8,0,4.2,2.1,3.5,4.2-2.1,9.1-7,18.2-9.8,27.3-.7,3.5-2.8,10.5-2.8,16.8s1.4,12.6,8.4,12.6c23.1,0,55.3-49,65.1-66.5,1.4-2.1,2.8-3.5,4.9-3.5,2.8,0,3.5,1.4,2.8,4.2-3.5,14-12.6,28-16.1,42-1.4,4.9-2.1,11.9-.7,16.8s4.2,8.4,10.5,7.7l-.7,2.1,2.8-.7a2.57,2.57,0,0,1,2.1-.7c1.4,0,2.8,2.1,2.1,4.2,0,1.4-1.4,2.8-2.8,3.5a19.38,19.38,0,0,1-6.3.7c-16.8,0-18.2-16.8-14-32.2l1.4-5.6Z"/><path class="cls-2" d="M385.18,356.81c6.3-4.9,11.9-9.8,18.2-14.7,5.6-4.9,11.2-9.8,17.5-14.7,4.9-4.9,18.9-16.8,25.2-16.8,4.9,0,7,3.5,7.7,8.4v7.7c0,2.8-.7,5.6-.7,7.7a171.63,171.63,0,0,1-1.4,18.9l-.7,4.2,3.5-2.8c14.7-10.5,30.8-18.2,46.2-19.6h1.4a3.08,3.08,0,0,1,.7,3.5,6.92,6.92,0,0,1-4.9,4.9c-19.6,2.8-32.2,9.8-48.3,23.1l-1.4,1.4c-6.3,51.8-45.5,111.3-85.4,142.8-6.3,4.9-14,10.5-20.3,10.5-5.6,0-7.7-2.8-8.4-7.7,0-44.1,73.5-123.2,105.7-149.1l.7-.7v-.7c.7-3.5,2.1-13.3,3.5-23.1,0-4.9.7-9.1.7-13.3a10.4,10.4,0,0,0,.7-4.2v-2.1a2.44,2.44,0,0,1-.7-1.4l-.7-2.1-2.8,2.1a102.36,102.36,0,0,1-13.3,11.2c-9.8,8.4-19.6,17.5-30.1,25.9-5.6,4.2-11.2,9.1-16.8,9.1a6.35,6.35,0,0,1-4.9-2.1Zm-3.5,126a239.52,239.52,0,0,0,53.2-98.7l2.8-9.8-4.9,4.2c-34.3,30.1-77.7,81.9-88.9,123.2a39.47,39.47,0,0,0-.7,4.9c0,1.4-.7,2.1-.7,2.8a2.44,2.44,0,0,0,.7,1.4,1.51,1.51,0,0,0,1.4,1.4c2.8,0,6.3-2.1,9.1-3.5,2.8-2.1,7-5.6,10.5-8.4,7-6.3,14-12.6,16.8-16.1h.7Zm47.6-179.2c-18.2,15.4-32.2,31.5-46.9,50.4l-6.3,9.1c-2.1-1.4-2.8-4.2-1.4-7,3.5-14.7,47.6-62.3,61.6-62.3,4.2,0,7,3.5,6.3,7-.7,2.1-3.5,4.9-5.6,4.9-.7,0-1.4,0-1.4-.7s0-2.1-2.1-2.1h-2.8Z"/><path class="cls-2" d="M495.78,368c.7-.7,2.8-2.1,4.2-2.1,0-.7.7-.7,1.4-1.4,12.6-8.4,23.1-19.6,32.9-30.1,4.9-5.6,9.8-11.2,14.7-16.1a159.9,159.9,0,0,1,15.4-15.4l3.5-2.8c2.1-2.1,4.9-3.5,7-5.6,1.4-.7,2.1-1.4,3.5-1.4,2.8,0,3.5,1.4,3.5,4.9-.7,1.4-.7,2.8-1.4,4.9-.7,1.4-.7,3.5-1.4,4.9-4.2,15.4-9.8,31.5-14,46.9-.7,4.9-3.5,14.7-4.2,23.8-.7,8.4,0,17.5,9.1,17.5,8.4,0,21-13.3,30.8-25.2,11.2-13.3,21-27.3,24.5-32.2,1.4-2.8,2.8-3.5,4.9-3.5,1.4,0,2.1.7,1.4,2.1-2.8,10.5-44.8,58.1-57.4,65.1a19.75,19.75,0,0,1-10.5,2.8c-7.7,0-10.5-5.6-11.9-14-.7-8.4,1.4-18.9,2.8-25.2,4.2-16.1,11.2-32.2,16.1-48.3l2.1-10.5-4.9,4.9c-8.4,8.4-22.4,25.2-37.8,39.9-14.7,15.4-29.4,26.6-38.5,26.6-7.7,0-9.1-6.3-7-14,9.8-24.5,47.6-72.8,73.5-72.8,2.1,0,4.9,0,6.3.7s2.1,1.4,1.4,3.5c0,.7-.7,1.4-.7,2.1l-.7,1.4H563c-.7.7-1.4.7-2.8.7s-2.8-.7-4.2-.7c-17.5,0-58.8,46.2-63,61.6a17.4,17.4,0,0,1-.7,5.6l-1.4,4.9Z"/><path class="cls-2" d="M633.67,348.41c12.6-21.7,30.1-46.9,56-46.9,2.1,0,4.9.7,7,.7l1.4,2.1c1.4,0,2.1,1.4,1.4,3.5s-2.8,4.2-4.9,4.2h-3.5a2.17,2.17,0,0,0-1.4-.7c-22.4,0-35.7,18.9-46.2,36.4-11.2,18.9-20.3,40.6-27.3,51.8a7.14,7.14,0,0,1-5.6,3.5c-2.1,0-3.5-1.4-2.8-4.2,1.4-8.4,4.2-18.2,7-27.3,5.6-21.7,13.3-52.5,21.7-74.2a5.32,5.32,0,0,1,5.6-4.2c2.8,0,3.5,1.4,2.8,4.2-4.9,16.8-10.5,33.6-15.4,51.1l-3.5,14Z"/><text class="cls-1" transform="translate(937.01 432.02)">ush</text><path class="cls-3" d="M1023.11,335.42l-10.5,10.5a74.93,74.93,0,0,1-11.2,9.8c-7,6.3-14.7,10.5-23.8,10.5-17.5,0-15.4-21-11.2-37.1a113.64,113.64,0,0,1,10.5-29.4,3.57,3.57,0,0,1,3.5-2.8c2.8,0,4.2,2.1,3.5,4.2-2.1,9.1-7,18.2-9.8,27.3-.7,3.5-2.8,10.5-2.8,16.8s1.4,12.6,8.4,12.6c23.1,0,55.3-49,65.1-66.5,1.4-2.1,2.8-3.5,4.9-3.5,2.8,0,3.5,1.4,2.8,4.2-3.5,14-12.6,28-16.1,42-1.4,4.9-2.1,11.9-.7,16.8s4.2,8.4,10.5,7.7l-.7,2.1,2.8-.7a2.57,2.57,0,0,1,2.1-.7c1.4,0,2.8,2.1,2.1,4.2,0,1.4-1.4,2.8-2.8,3.5a19.38,19.38,0,0,1-6.3.7c-16.8,0-18.2-16.8-14-32.2l1.4-5.6Z"/><path class="cls-3" d="M1089.61,356.42c-4.2-7.7-9.8-16.1-13.3-25.9-4.2-9.1-5.6-18.9-3.5-27.3,4.9-18.9,29.4-35,42-35,4.9,0,6.3,2.8,5.6,4.9,0,.7-.7,2.1-4.2,3.5-14,2.8-30.8,9.8-34.3,24.5-2.8,9.1,0,18.9,4.2,27.3,3.5,8.4,8.4,16.8,11.9,23.8l.7,1.4,1.4-1.4c6.3-2.8,18.9-9.1,30.8-14.7,12.6-5.6,23.8-9.8,28.7-9.8,2.8,0,4.9,2.1,4.2,4.9,0,.7-1.4,2.1-11.9,7-9.8,4.2-28.7,13.3-47.6,21.7l-2.8,1.4,1.4,2.1c2.8,5.6,4.9,12.6,2.8,18.2-2.8,12.6-21.7,20.3-32.9,20.3-11.9,0-25.9-8.4-23.1-19.6,2.1-6.3,7.7-10.5,15.4-14.7s16.8-7,22.4-9.1l2.8-1.4Zm-11.2,39.2a23,23,0,0,0,11.9-2.8c11.2-7,4.9-18.2,3.5-25.9l-12.6,5.6c-2.1,1.4-7,2.8-11.2,4.2-2.8,1.4-4.9,2.1-7,3.5a7.55,7.55,0,0,0-4.2,4.9c-.7,2.1.7,3.5,1.4,4.9a11.28,11.28,0,0,0,4.9,2.8A37.31,37.31,0,0,0,1078.41,395.62Z"/><path class="cls-3" d="M1170.8,362.72c5.6-4.9,16.8-16.1,28.7-25.9,12.6-10.5,23.8-18.9,29.4-18.9s7.7,2.8,8.4,7.7c.7,2.1,0,4.9,0,8.4-.7,2.8-1.4,6.3-2.1,9.8-2.8,14-4.9,30.1,13.3,30.1,11.2,0,21.7-9.1,29.4-16.1,2.1-2.1,8.4-9.1,14.7-16.1a90.9,90.9,0,0,0,8.4-9.8c1.4-1.4,2.1-2.8,2.8-3.5s.7-1.4,1.4-2.1a3.85,3.85,0,0,1,3.5-2.1c2.8,0,4.2,2.1,3.5,4.2,0,.7-.7,1.4-1.4,2.1-3.5,4.9-8.4,10.5-13.3,16.1-11.2,14.7-32.9,34.3-51.8,34.3-13.3,0-21.7-9.1-20.3-22.4,0-7,2.1-14.7,3.5-21.7,0-.7.7-2.8,1.4-5.6v-3.5a2.17,2.17,0,0,0-.7-1.4c0-.7-.7-1.4-2.1-1.4s-3.5,1.4-5.6,2.8c-2.8,1.4-4.9,3.5-8.4,6.3-5.6,4.9-12.6,11.2-19.6,17.5s-14,12.6-19.6,17.5c-2.8,2.8-5.6,4.2-7,5.6a36.37,36.37,0,0,1-3.5,2.1c-1.4,0-3.5-2.1-4.9-5.6-.7-3.5-1.4-8.4-2.1-13.3-.7-11.2.7-23.1.7-27.3,0-7.7,2.8-16.8,4.9-25.2,16.1-60.9,65.1-137.2,106.4-190.4,12.6-16.8,28-35.7,47.6-35.7,24.5,0,21,29.4,15.4,51.1-16.8,61.6-65.8,109.9-112.7,151.2-17.5,15.4-35,30.8-51.1,47.6l-.7.7v.7a118.62,118.62,0,0,0,0,31.5l.7,2.8Zm.7-49c28.7-28.7,60.9-54.6,88.9-84,27.3-28.7,50.4-60.9,61.6-100.8.7-2.8,1.4-7,2.8-11.2a77.13,77.13,0,0,0,1.4-12.6c0-8.4-2.1-16.8-11.9-16.8-5.6,0-11.9,2.8-16.8,6.3-30.1,18.9-98.7,135.1-111.3,165.9-6.3,14.7-12.6,30.1-16.8,45.5l-2.8,12.6Z"/><text class="cls-1" transform="translate(-40.46 487.1)">S</text><text class="cls-4" transform="translate(-40.46 487.1)">S</text><text class="cls-1" transform="translate(580.65 440.02)">R</text><text class="cls-5" transform="translate(580.65 440.02)">R</text></svg>